# xmcd
#
# Track frame offsets: 
#        150
#        14840
#        25421
#        35356
#        48424
#        60350
#        88048
#
# Disc length: 2295 seconds
#
# Revision: 4
# Processed by: cddbd v1.5PL3 Copyright (c) Steve Scherf et al.
# Submitted via: ExactAudioCopy v0.95a3
#
DISCID=5408f507
DTITLE=SHACHI - Keep My Mind
DYEAR=2001
DGENRE=Rock
TTITLE0=Fighter
TTITLE1=20(Twenty)
TTITLE2=Stick Out
TTITLE3=White
TTITLE4=Stupid
TTITLE5=Secret
TTITLE6=!
EXTD=
EXTT0=
EXTT1=
EXTT2=
EXTT3=
EXTT4=
EXTT5=
EXTT6=
PLAYORDER=
